<svg xmlns="http://www.w3.org/2000/svg" viewBox="0 0 1440 320">
          <path
            fill="#0099ff"
            fill-opacity="0.79"
            d="M0,224L0,32L102.9,32L102.9,128L205.7,128L205.7,224L308.6,224L308.6,224L411.4,224L411.4,96L514.3,96L514.3,160L617.1,160L617.1,160L720,160L720,192L822.9,192L822.9,128L925.7,128L925.7,288L1028.6,288L1028.6,128L1131.4,128L1131.4,96L1234.3,96L1234.3,96L1337.1,96L1337.1,32L1440,32L1440,320L1337.1,320L1337.1,320L1234.3,320L1234.3,320L1131.4,320L1131.4,320L1028.6,320L1028.6,320L925.7,320L925.7,320L822.9,320L822.9,320L720,320L720,320L617.1,320L617.1,320L514.3,320L514.3,320L411.4,320L411.4,320L308.6,320L308.6,320L205.7,320L205.7,320L102.9,320L102.9,320L0,320L0,320Z"
          ></path>
        </svg>