<svg xmlns="http://www.w3.org/2000/svg" viewBox="0 0 1440 320">
            <path
              fill="#0099ff"
              fill-opacity="0.79"
              d="M0,192L0,320L80,320L80,64L160,64L160,256L240,256L240,224L320,224L320,64L400,64L400,192L480,192L480,256L560,256L560,192L640,192L640,160L720,160L720,192L800,192L800,32L880,32L880,96L960,96L960,160L1040,160L1040,288L1120,288L1120,64L1200,64L1200,32L1280,32L1280,224L1360,224L1360,128L1440,128L1440,0L1360,0L1360,0L1280,0L1280,0L1200,0L1200,0L1120,0L1120,0L1040,0L1040,0L960,0L960,0L880,0L880,0L800,0L800,0L720,0L720,0L640,0L640,0L560,0L560,0L480,0L480,0L400,0L400,0L320,0L320,0L240,0L240,0L160,0L160,0L80,0L80,0L0,0L0,0Z"
            ></path>
          </svg>